<mxfile host="app.diagrams.net" agent="Mozilla/5.0 (Windows NT 10.0; Win64; x64) AppleWebKit/537.36 (KHTML, like Gecko) Chrome/138.0.0.0 Safari/537.36 OPR/122.0.0.0 (Edition std-1)" version="28.2.7">
  <diagram name="Page-1" id="u5QUIdUAYfQrAgpn6whf">
    <mxGraphModel grid="1" page="1" gridSize="10" guides="1" tooltips="1" connect="1" arrows="1" fold="1" pageScale="1" pageWidth="3300" pageHeight="2339" math="0" shadow="0">
      <root>
        <mxCell id="0" />
        <mxCell id="1" parent="0" />
        <mxCell id="CJ2RXwOjifjP3YCDmima-1" value="" style="rounded=0;whiteSpace=wrap;html=1;" vertex="1" parent="1">
          <mxGeometry x="240" y="200" width="40" height="40" as="geometry" />
        </mxCell>
        <mxCell id="CJ2RXwOjifjP3YCDmima-3" value="" style="rounded=0;whiteSpace=wrap;html=1;" vertex="1" parent="1">
          <mxGeometry x="280" y="200" width="40" height="40" as="geometry" />
        </mxCell>
        <mxCell id="CJ2RXwOjifjP3YCDmima-4" value="" style="rounded=0;whiteSpace=wrap;html=1;" vertex="1" parent="1">
          <mxGeometry x="320" y="200" width="40" height="40" as="geometry" />
        </mxCell>
        <mxCell id="CJ2RXwOjifjP3YCDmima-5" value="" style="rounded=0;whiteSpace=wrap;html=1;" vertex="1" parent="1">
          <mxGeometry x="360" y="200" width="40" height="40" as="geometry" />
        </mxCell>
        <mxCell id="CJ2RXwOjifjP3YCDmima-23" value="Line Buffer&amp;nbsp; A" style="text;html=1;whiteSpace=wrap;strokeColor=none;fillColor=none;align=center;verticalAlign=middle;rounded=0;" vertex="1" parent="1">
          <mxGeometry x="120" y="205" width="110" height="30" as="geometry" />
        </mxCell>
        <mxCell id="CJ2RXwOjifjP3YCDmima-24" value="" style="rounded=0;whiteSpace=wrap;html=1;" vertex="1" parent="1">
          <mxGeometry x="240" y="340" width="40" height="40" as="geometry" />
        </mxCell>
        <mxCell id="CJ2RXwOjifjP3YCDmima-25" value="" style="rounded=0;whiteSpace=wrap;html=1;" vertex="1" parent="1">
          <mxGeometry x="280" y="340" width="40" height="40" as="geometry" />
        </mxCell>
        <mxCell id="CJ2RXwOjifjP3YCDmima-26" value="" style="rounded=0;whiteSpace=wrap;html=1;" vertex="1" parent="1">
          <mxGeometry x="320" y="340" width="40" height="40" as="geometry" />
        </mxCell>
        <mxCell id="CJ2RXwOjifjP3YCDmima-27" value="" style="rounded=0;whiteSpace=wrap;html=1;" vertex="1" parent="1">
          <mxGeometry x="360" y="340" width="40" height="40" as="geometry" />
        </mxCell>
        <mxCell id="CJ2RXwOjifjP3YCDmima-45" value="Line Buffer&amp;nbsp; B" style="text;html=1;whiteSpace=wrap;strokeColor=none;fillColor=none;align=center;verticalAlign=middle;rounded=0;" vertex="1" parent="1">
          <mxGeometry x="120" y="345" width="110" height="30" as="geometry" />
        </mxCell>
        <mxCell id="CJ2RXwOjifjP3YCDmima-47" value="" style="endArrow=classic;html=1;rounded=0;entryX=0.5;entryY=1;entryDx=0;entryDy=0;exitX=0.5;exitY=0;exitDx=0;exitDy=0;" edge="1" parent="1" source="CJ2RXwOjifjP3YCDmima-25" target="CJ2RXwOjifjP3YCDmima-3">
          <mxGeometry width="50" height="50" relative="1" as="geometry">
            <mxPoint x="590" y="320" as="sourcePoint" />
            <mxPoint x="640" y="270" as="targetPoint" />
          </mxGeometry>
        </mxCell>
        <mxCell id="CJ2RXwOjifjP3YCDmima-48" value="" style="endArrow=classic;html=1;rounded=0;" edge="1" parent="1">
          <mxGeometry width="50" height="50" relative="1" as="geometry">
            <mxPoint x="300" y="300" as="sourcePoint" />
            <mxPoint x="130" y="300" as="targetPoint" />
          </mxGeometry>
        </mxCell>
        <mxCell id="CJ2RXwOjifjP3YCDmima-49" value="" style="endArrow=classic;html=1;rounded=0;entryX=0.5;entryY=1;entryDx=0;entryDy=0;exitX=0.5;exitY=0;exitDx=0;exitDy=0;" edge="1" parent="1" source="CJ2RXwOjifjP3YCDmima-26" target="CJ2RXwOjifjP3YCDmima-4">
          <mxGeometry width="50" height="50" relative="1" as="geometry">
            <mxPoint x="450" y="280" as="sourcePoint" />
            <mxPoint x="500" y="230" as="targetPoint" />
          </mxGeometry>
        </mxCell>
        <mxCell id="CJ2RXwOjifjP3YCDmima-72" value="" style="endArrow=classic;html=1;rounded=0;entryX=0.5;entryY=1;entryDx=0;entryDy=0;exitX=0.5;exitY=0;exitDx=0;exitDy=0;" edge="1" parent="1" source="CJ2RXwOjifjP3YCDmima-27" target="CJ2RXwOjifjP3YCDmima-5">
          <mxGeometry width="50" height="50" relative="1" as="geometry">
            <mxPoint x="450" y="280" as="sourcePoint" />
            <mxPoint x="500" y="230" as="targetPoint" />
          </mxGeometry>
        </mxCell>
        <mxCell id="CJ2RXwOjifjP3YCDmima-95" value="" style="endArrow=classic;html=1;rounded=0;entryX=0.5;entryY=1;entryDx=0;entryDy=0;exitX=0.5;exitY=0;exitDx=0;exitDy=0;" edge="1" parent="1" source="CJ2RXwOjifjP3YCDmima-24" target="CJ2RXwOjifjP3YCDmima-1">
          <mxGeometry width="50" height="50" relative="1" as="geometry">
            <mxPoint x="450" y="280" as="sourcePoint" />
            <mxPoint x="500" y="230" as="targetPoint" />
          </mxGeometry>
        </mxCell>
        <mxCell id="CJ2RXwOjifjP3YCDmima-96" value="" style="endArrow=classic;html=1;rounded=0;" edge="1" parent="1">
          <mxGeometry width="50" height="50" relative="1" as="geometry">
            <mxPoint x="260" y="320" as="sourcePoint" />
            <mxPoint x="130" y="320" as="targetPoint" />
          </mxGeometry>
        </mxCell>
        <mxCell id="CJ2RXwOjifjP3YCDmima-97" value="" style="endArrow=classic;html=1;rounded=0;" edge="1" parent="1">
          <mxGeometry width="50" height="50" relative="1" as="geometry">
            <mxPoint x="340" y="280" as="sourcePoint" />
            <mxPoint x="130" y="280" as="targetPoint" />
          </mxGeometry>
        </mxCell>
        <mxCell id="CJ2RXwOjifjP3YCDmima-98" value="" style="endArrow=classic;html=1;rounded=0;" edge="1" parent="1">
          <mxGeometry width="50" height="50" relative="1" as="geometry">
            <mxPoint x="380" y="260" as="sourcePoint" />
            <mxPoint x="130" y="260" as="targetPoint" />
          </mxGeometry>
        </mxCell>
        <mxCell id="CJ2RXwOjifjP3YCDmima-99" value="" style="rounded=0;whiteSpace=wrap;html=1;" vertex="1" parent="1">
          <mxGeometry x="240" y="480" width="40" height="40" as="geometry" />
        </mxCell>
        <mxCell id="CJ2RXwOjifjP3YCDmima-100" value="" style="rounded=0;whiteSpace=wrap;html=1;" vertex="1" parent="1">
          <mxGeometry x="280" y="480" width="40" height="40" as="geometry" />
        </mxCell>
        <mxCell id="CJ2RXwOjifjP3YCDmima-101" value="" style="rounded=0;whiteSpace=wrap;html=1;" vertex="1" parent="1">
          <mxGeometry x="320" y="480" width="40" height="40" as="geometry" />
        </mxCell>
        <mxCell id="CJ2RXwOjifjP3YCDmima-102" value="" style="rounded=0;whiteSpace=wrap;html=1;" vertex="1" parent="1">
          <mxGeometry x="360" y="480" width="40" height="40" as="geometry" />
        </mxCell>
        <mxCell id="CJ2RXwOjifjP3YCDmima-106" value="Line Buffer&amp;nbsp; C" style="text;html=1;whiteSpace=wrap;strokeColor=none;fillColor=none;align=center;verticalAlign=middle;rounded=0;" vertex="1" parent="1">
          <mxGeometry x="120" y="485" width="110" height="30" as="geometry" />
        </mxCell>
        <mxCell id="CJ2RXwOjifjP3YCDmima-107" value="" style="endArrow=classic;html=1;rounded=0;entryX=0.5;entryY=1;entryDx=0;entryDy=0;exitX=0.5;exitY=0;exitDx=0;exitDy=0;" edge="1" parent="1" source="CJ2RXwOjifjP3YCDmima-100">
          <mxGeometry width="50" height="50" relative="1" as="geometry">
            <mxPoint x="590" y="460" as="sourcePoint" />
            <mxPoint x="300" y="380" as="targetPoint" />
          </mxGeometry>
        </mxCell>
        <mxCell id="CJ2RXwOjifjP3YCDmima-108" value="" style="endArrow=classic;html=1;rounded=0;" edge="1" parent="1">
          <mxGeometry width="50" height="50" relative="1" as="geometry">
            <mxPoint x="300" y="440" as="sourcePoint" />
            <mxPoint x="130" y="440" as="targetPoint" />
          </mxGeometry>
        </mxCell>
        <mxCell id="CJ2RXwOjifjP3YCDmima-109" value="" style="endArrow=classic;html=1;rounded=0;entryX=0.5;entryY=1;entryDx=0;entryDy=0;exitX=0.5;exitY=0;exitDx=0;exitDy=0;" edge="1" parent="1" source="CJ2RXwOjifjP3YCDmima-101">
          <mxGeometry width="50" height="50" relative="1" as="geometry">
            <mxPoint x="450" y="420" as="sourcePoint" />
            <mxPoint x="340" y="380" as="targetPoint" />
          </mxGeometry>
        </mxCell>
        <mxCell id="CJ2RXwOjifjP3YCDmima-110" value="" style="endArrow=classic;html=1;rounded=0;entryX=0.5;entryY=1;entryDx=0;entryDy=0;exitX=0.5;exitY=0;exitDx=0;exitDy=0;" edge="1" parent="1" source="CJ2RXwOjifjP3YCDmima-102">
          <mxGeometry width="50" height="50" relative="1" as="geometry">
            <mxPoint x="450" y="420" as="sourcePoint" />
            <mxPoint x="380" y="380" as="targetPoint" />
          </mxGeometry>
        </mxCell>
        <mxCell id="CJ2RXwOjifjP3YCDmima-111" value="" style="endArrow=classic;html=1;rounded=0;entryX=0.5;entryY=1;entryDx=0;entryDy=0;exitX=0.5;exitY=0;exitDx=0;exitDy=0;" edge="1" parent="1" source="CJ2RXwOjifjP3YCDmima-99">
          <mxGeometry width="50" height="50" relative="1" as="geometry">
            <mxPoint x="450" y="420" as="sourcePoint" />
            <mxPoint x="260" y="380" as="targetPoint" />
          </mxGeometry>
        </mxCell>
        <mxCell id="CJ2RXwOjifjP3YCDmima-112" value="" style="endArrow=classic;html=1;rounded=0;" edge="1" parent="1">
          <mxGeometry width="50" height="50" relative="1" as="geometry">
            <mxPoint x="260" y="460" as="sourcePoint" />
            <mxPoint x="130" y="460" as="targetPoint" />
          </mxGeometry>
        </mxCell>
        <mxCell id="CJ2RXwOjifjP3YCDmima-113" value="" style="endArrow=classic;html=1;rounded=0;" edge="1" parent="1">
          <mxGeometry width="50" height="50" relative="1" as="geometry">
            <mxPoint x="340" y="420" as="sourcePoint" />
            <mxPoint x="130" y="420" as="targetPoint" />
          </mxGeometry>
        </mxCell>
        <mxCell id="CJ2RXwOjifjP3YCDmima-114" value="" style="endArrow=classic;html=1;rounded=0;" edge="1" parent="1">
          <mxGeometry width="50" height="50" relative="1" as="geometry">
            <mxPoint x="380" y="400" as="sourcePoint" />
            <mxPoint x="130" y="400" as="targetPoint" />
          </mxGeometry>
        </mxCell>
        <mxCell id="CJ2RXwOjifjP3YCDmima-115" value="" style="endArrow=classic;html=1;rounded=0;entryX=0.5;entryY=1;entryDx=0;entryDy=0;exitX=0.5;exitY=0;exitDx=0;exitDy=0;" edge="1" parent="1">
          <mxGeometry width="50" height="50" relative="1" as="geometry">
            <mxPoint x="300" y="620" as="sourcePoint" />
            <mxPoint x="300" y="520" as="targetPoint" />
          </mxGeometry>
        </mxCell>
        <mxCell id="CJ2RXwOjifjP3YCDmima-116" value="" style="endArrow=classic;html=1;rounded=0;entryX=0.5;entryY=1;entryDx=0;entryDy=0;exitX=0.5;exitY=0;exitDx=0;exitDy=0;" edge="1" parent="1">
          <mxGeometry width="50" height="50" relative="1" as="geometry">
            <mxPoint x="340" y="620" as="sourcePoint" />
            <mxPoint x="340" y="520" as="targetPoint" />
          </mxGeometry>
        </mxCell>
        <mxCell id="CJ2RXwOjifjP3YCDmima-117" value="" style="endArrow=classic;html=1;rounded=0;entryX=0.5;entryY=1;entryDx=0;entryDy=0;exitX=0.5;exitY=0;exitDx=0;exitDy=0;" edge="1" parent="1">
          <mxGeometry width="50" height="50" relative="1" as="geometry">
            <mxPoint x="380" y="620" as="sourcePoint" />
            <mxPoint x="380" y="520" as="targetPoint" />
          </mxGeometry>
        </mxCell>
        <mxCell id="CJ2RXwOjifjP3YCDmima-118" value="" style="endArrow=classic;html=1;rounded=0;entryX=0.5;entryY=1;entryDx=0;entryDy=0;exitX=0.5;exitY=0;exitDx=0;exitDy=0;" edge="1" parent="1">
          <mxGeometry width="50" height="50" relative="1" as="geometry">
            <mxPoint x="260" y="620" as="sourcePoint" />
            <mxPoint x="260" y="520" as="targetPoint" />
          </mxGeometry>
        </mxCell>
        <mxCell id="CJ2RXwOjifjP3YCDmima-120" value="" style="endArrow=none;html=1;rounded=0;" edge="1" parent="1">
          <mxGeometry width="50" height="50" relative="1" as="geometry">
            <mxPoint x="260" y="620" as="sourcePoint" />
            <mxPoint x="380" y="620" as="targetPoint" />
          </mxGeometry>
        </mxCell>
        <mxCell id="CJ2RXwOjifjP3YCDmima-122" value="" style="endArrow=none;html=1;rounded=0;" edge="1" parent="1">
          <mxGeometry width="50" height="50" relative="1" as="geometry">
            <mxPoint x="320" y="710" as="sourcePoint" />
            <mxPoint x="320" y="620" as="targetPoint" />
          </mxGeometry>
        </mxCell>
        <mxCell id="CJ2RXwOjifjP3YCDmima-123" value="RAM DATA READ" style="text;html=1;whiteSpace=wrap;strokeColor=none;fillColor=none;align=center;verticalAlign=middle;rounded=0;" vertex="1" parent="1">
          <mxGeometry x="325" y="660" width="110" height="30" as="geometry" />
        </mxCell>
        <mxCell id="CJ2RXwOjifjP3YCDmima-124" value="" style="endArrow=classic;html=1;rounded=0;" edge="1" parent="1">
          <mxGeometry width="50" height="50" relative="1" as="geometry">
            <mxPoint x="633" y="499.41" as="sourcePoint" />
            <mxPoint x="533" y="499.41" as="targetPoint" />
          </mxGeometry>
        </mxCell>
        <mxCell id="CJ2RXwOjifjP3YCDmima-125" value="" style="endArrow=classic;html=1;rounded=0;" edge="1" parent="1">
          <mxGeometry width="50" height="50" relative="1" as="geometry">
            <mxPoint x="633" y="219.41" as="sourcePoint" />
            <mxPoint x="533" y="219.41" as="targetPoint" />
          </mxGeometry>
        </mxCell>
        <mxCell id="CJ2RXwOjifjP3YCDmima-126" value="D-FF Control Logic" style="text;html=1;whiteSpace=wrap;strokeColor=none;fillColor=none;align=center;verticalAlign=middle;rounded=0;" vertex="1" parent="1">
          <mxGeometry x="533" y="190" width="140" height="30" as="geometry" />
        </mxCell>
        <mxCell id="CJ2RXwOjifjP3YCDmima-127" value="D-FF Control Logic" style="text;html=1;whiteSpace=wrap;strokeColor=none;fillColor=none;align=center;verticalAlign=middle;rounded=0;" vertex="1" parent="1">
          <mxGeometry x="535" y="470" width="140" height="30" as="geometry" />
        </mxCell>
        <mxCell id="CJ2RXwOjifjP3YCDmima-128" value="D-FF Control Logic" style="text;html=1;whiteSpace=wrap;strokeColor=none;fillColor=none;align=center;verticalAlign=middle;rounded=0;" vertex="1" parent="1">
          <mxGeometry x="530" y="330" width="140" height="30" as="geometry" />
        </mxCell>
        <mxCell id="CJ2RXwOjifjP3YCDmima-129" value="" style="endArrow=classic;html=1;rounded=0;" edge="1" parent="1">
          <mxGeometry width="50" height="50" relative="1" as="geometry">
            <mxPoint x="633" y="359.40999999999997" as="sourcePoint" />
            <mxPoint x="533" y="359.40999999999997" as="targetPoint" />
          </mxGeometry>
        </mxCell>
        <mxCell id="CJ2RXwOjifjP3YCDmima-130" value="" style="ellipse;shape=cloud;whiteSpace=wrap;html=1;rotation=90;movable=1;resizable=1;rotatable=1;deletable=1;editable=1;locked=0;connectable=1;" vertex="1" parent="1">
          <mxGeometry x="-369" y="150" width="500" height="250" as="geometry" />
        </mxCell>
        <mxCell id="CJ2RXwOjifjP3YCDmima-131" value="&lt;font style=&quot;font-size: 14px;&quot;&gt;Detection cloud logic&lt;/font&gt;" style="text;html=1;whiteSpace=wrap;strokeColor=none;fillColor=none;align=center;verticalAlign=middle;rounded=0;" vertex="1" parent="1">
          <mxGeometry x="-179" y="270" width="90" height="30" as="geometry" />
        </mxCell>
        <mxCell id="CJ2RXwOjifjP3YCDmima-137" value="" style="endArrow=classic;html=1;rounded=0;" edge="1" parent="1">
          <mxGeometry width="50" height="50" relative="1" as="geometry">
            <mxPoint x="-231" y="256" as="sourcePoint" />
            <mxPoint x="-361" y="256" as="targetPoint" />
          </mxGeometry>
        </mxCell>
        <mxCell id="CJ2RXwOjifjP3YCDmima-138" value="" style="endArrow=classic;html=1;rounded=0;" edge="1" parent="1">
          <mxGeometry width="50" height="50" relative="1" as="geometry">
            <mxPoint x="-231" y="276" as="sourcePoint" />
            <mxPoint x="-361" y="276" as="targetPoint" />
          </mxGeometry>
        </mxCell>
        <mxCell id="CJ2RXwOjifjP3YCDmima-139" value="" style="endArrow=classic;html=1;rounded=0;" edge="1" parent="1">
          <mxGeometry width="50" height="50" relative="1" as="geometry">
            <mxPoint x="-231" y="296" as="sourcePoint" />
            <mxPoint x="-361" y="296" as="targetPoint" />
          </mxGeometry>
        </mxCell>
        <mxCell id="CJ2RXwOjifjP3YCDmima-140" value="" style="endArrow=classic;html=1;rounded=0;" edge="1" parent="1">
          <mxGeometry width="50" height="50" relative="1" as="geometry">
            <mxPoint x="-231" y="316" as="sourcePoint" />
            <mxPoint x="-361" y="316" as="targetPoint" />
          </mxGeometry>
        </mxCell>
        <mxCell id="CJ2RXwOjifjP3YCDmima-145" value="&amp;nbsp;New 1" style="text;html=1;whiteSpace=wrap;strokeColor=none;fillColor=none;align=center;verticalAlign=middle;rounded=0;" vertex="1" parent="1">
          <mxGeometry x="-421" y="240" width="60" height="30" as="geometry" />
        </mxCell>
        <mxCell id="CJ2RXwOjifjP3YCDmima-146" value="&amp;nbsp;New 2" style="text;html=1;whiteSpace=wrap;strokeColor=none;fillColor=none;align=center;verticalAlign=middle;rounded=0;" vertex="1" parent="1">
          <mxGeometry x="-421" y="260" width="60" height="30" as="geometry" />
        </mxCell>
        <mxCell id="CJ2RXwOjifjP3YCDmima-147" value="&amp;nbsp;New 3" style="text;html=1;whiteSpace=wrap;strokeColor=none;fillColor=none;align=center;verticalAlign=middle;rounded=0;" vertex="1" parent="1">
          <mxGeometry x="-421" y="282" width="60" height="30" as="geometry" />
        </mxCell>
        <mxCell id="CJ2RXwOjifjP3YCDmima-148" value="&amp;nbsp;New 4" style="text;html=1;whiteSpace=wrap;strokeColor=none;fillColor=none;align=center;verticalAlign=middle;rounded=0;" vertex="1" parent="1">
          <mxGeometry x="-421" y="301" width="60" height="30" as="geometry" />
        </mxCell>
        <mxCell id="CJ2RXwOjifjP3YCDmima-149" value="Text" style="text;html=1;whiteSpace=wrap;strokeColor=none;fillColor=none;align=center;verticalAlign=middle;rounded=0;" vertex="1" parent="1">
          <mxGeometry x="180" y="290" width="60" height="30" as="geometry" />
        </mxCell>
        <mxCell id="CJ2RXwOjifjP3YCDmima-150" value="1" style="text;html=1;whiteSpace=wrap;strokeColor=none;fillColor=none;align=center;verticalAlign=middle;rounded=0;" vertex="1" parent="1">
          <mxGeometry x="230" y="344" width="60" height="30" as="geometry" />
        </mxCell>
        <mxCell id="CJ2RXwOjifjP3YCDmima-151" value="2" style="text;html=1;whiteSpace=wrap;strokeColor=none;fillColor=none;align=center;verticalAlign=middle;rounded=0;" vertex="1" parent="1">
          <mxGeometry x="265" y="345" width="60" height="30" as="geometry" />
        </mxCell>
        <mxCell id="CJ2RXwOjifjP3YCDmima-152" value="3" style="text;html=1;whiteSpace=wrap;strokeColor=none;fillColor=none;align=center;verticalAlign=middle;rounded=0;" vertex="1" parent="1">
          <mxGeometry x="310" y="345" width="60" height="30" as="geometry" />
        </mxCell>
        <mxCell id="CJ2RXwOjifjP3YCDmima-153" value="4" style="text;html=1;whiteSpace=wrap;strokeColor=none;fillColor=none;align=center;verticalAlign=middle;rounded=0;" vertex="1" parent="1">
          <mxGeometry x="350" y="344" width="60" height="30" as="geometry" />
        </mxCell>
        <mxCell id="CJ2RXwOjifjP3YCDmima-154" value="" style="endArrow=classic;html=1;rounded=0;fillColor=#f8cecc;strokeColor=#b85450;" edge="1" parent="1">
          <mxGeometry width="50" height="50" relative="1" as="geometry">
            <mxPoint x="703" y="510" as="sourcePoint" />
            <mxPoint x="703" y="200" as="targetPoint" />
          </mxGeometry>
        </mxCell>
        <mxCell id="CJ2RXwOjifjP3YCDmima-155" value="Rows shifting" style="text;html=1;whiteSpace=wrap;strokeColor=none;fillColor=none;align=center;verticalAlign=middle;rounded=0;" vertex="1" parent="1">
          <mxGeometry x="743" y="330" width="140" height="30" as="geometry" />
        </mxCell>
        <mxCell id="CJ2RXwOjifjP3YCDmima-157" value="" style="endArrow=classic;html=1;rounded=0;exitX=0.5;exitY=0;exitDx=0;exitDy=0;" edge="1" parent="1" source="CJ2RXwOjifjP3YCDmima-1">
          <mxGeometry width="50" height="50" relative="1" as="geometry">
            <mxPoint x="250" y="190" as="sourcePoint" />
            <mxPoint x="130" y="170" as="targetPoint" />
            <Array as="points">
              <mxPoint x="260" y="170" />
            </Array>
          </mxGeometry>
        </mxCell>
        <mxCell id="CJ2RXwOjifjP3YCDmima-159" value="" style="endArrow=classic;html=1;rounded=0;exitX=0.5;exitY=0;exitDx=0;exitDy=0;" edge="1" parent="1" source="CJ2RXwOjifjP3YCDmima-3">
          <mxGeometry width="50" height="50" relative="1" as="geometry">
            <mxPoint x="300" y="180" as="sourcePoint" />
            <mxPoint x="130" y="150" as="targetPoint" />
            <Array as="points">
              <mxPoint x="300" y="150" />
            </Array>
          </mxGeometry>
        </mxCell>
        <mxCell id="CJ2RXwOjifjP3YCDmima-160" value="" style="endArrow=classic;html=1;rounded=0;exitX=0.5;exitY=0;exitDx=0;exitDy=0;" edge="1" parent="1" source="CJ2RXwOjifjP3YCDmima-4">
          <mxGeometry width="50" height="50" relative="1" as="geometry">
            <mxPoint x="340" y="160" as="sourcePoint" />
            <mxPoint x="130" y="130" as="targetPoint" />
            <Array as="points">
              <mxPoint x="340" y="130" />
            </Array>
          </mxGeometry>
        </mxCell>
        <mxCell id="CJ2RXwOjifjP3YCDmima-161" value="" style="endArrow=classic;html=1;rounded=0;exitX=0.5;exitY=0;exitDx=0;exitDy=0;" edge="1" parent="1" source="CJ2RXwOjifjP3YCDmima-5">
          <mxGeometry width="50" height="50" relative="1" as="geometry">
            <mxPoint x="380" y="140" as="sourcePoint" />
            <mxPoint x="130" y="110" as="targetPoint" />
            <Array as="points">
              <mxPoint x="380" y="110" />
            </Array>
          </mxGeometry>
        </mxCell>
        <mxCell id="CJ2RXwOjifjP3YCDmima-162" value="" style="shape=trapezoid;perimeter=trapezoidPerimeter;whiteSpace=wrap;html=1;fixedSize=1;rotation=-90;" vertex="1" parent="1">
          <mxGeometry x="-494" y="250" width="90" height="60" as="geometry" />
        </mxCell>
        <mxCell id="CJ2RXwOjifjP3YCDmima-163" value="" style="endArrow=none;html=1;rounded=0;exitX=1;exitY=0.5;exitDx=0;exitDy=0;" edge="1" parent="1" source="CJ2RXwOjifjP3YCDmima-162">
          <mxGeometry width="50" height="50" relative="1" as="geometry">
            <mxPoint x="-489" y="200" as="sourcePoint" />
            <mxPoint x="-449" y="200" as="targetPoint" />
          </mxGeometry>
        </mxCell>
        <mxCell id="CJ2RXwOjifjP3YCDmima-164" value="Sel" style="text;html=1;whiteSpace=wrap;strokeColor=none;fillColor=none;align=center;verticalAlign=middle;rounded=0;" vertex="1" parent="1">
          <mxGeometry x="-479" y="170" width="60" height="30" as="geometry" />
        </mxCell>
        <mxCell id="CJ2RXwOjifjP3YCDmima-165" value="" style="endArrow=classic;html=1;rounded=0;exitX=0.5;exitY=0;exitDx=0;exitDy=0;" edge="1" parent="1" source="CJ2RXwOjifjP3YCDmima-162">
          <mxGeometry width="50" height="50" relative="1" as="geometry">
            <mxPoint x="-289" y="355" as="sourcePoint" />
            <mxPoint x="-589" y="280" as="targetPoint" />
          </mxGeometry>
        </mxCell>
        <mxCell id="CJ2RXwOjifjP3YCDmima-166" value="RAM DATA WRITE" style="text;html=1;whiteSpace=wrap;strokeColor=none;fillColor=none;align=center;verticalAlign=middle;rounded=0;" vertex="1" parent="1">
          <mxGeometry x="-599" y="250" width="110" height="30" as="geometry" />
        </mxCell>
        <mxCell id="CJ2RXwOjifjP3YCDmima-167" value="" style="rounded=0;whiteSpace=wrap;html=1;" vertex="1" parent="1">
          <mxGeometry x="510" y="1480" width="40" height="40" as="geometry" />
        </mxCell>
        <mxCell id="CJ2RXwOjifjP3YCDmima-168" value="" style="rounded=0;whiteSpace=wrap;html=1;" vertex="1" parent="1">
          <mxGeometry x="550" y="1480" width="40" height="40" as="geometry" />
        </mxCell>
        <mxCell id="CJ2RXwOjifjP3YCDmima-169" value="" style="rounded=0;whiteSpace=wrap;html=1;" vertex="1" parent="1">
          <mxGeometry x="590" y="1480" width="40" height="40" as="geometry" />
        </mxCell>
        <mxCell id="CJ2RXwOjifjP3YCDmima-170" value="" style="rounded=0;whiteSpace=wrap;html=1;" vertex="1" parent="1">
          <mxGeometry x="630" y="1480" width="40" height="40" as="geometry" />
        </mxCell>
        <mxCell id="CJ2RXwOjifjP3YCDmima-171" value="Line Buffer&amp;nbsp; A" style="text;html=1;whiteSpace=wrap;strokeColor=none;fillColor=none;align=center;verticalAlign=middle;rounded=0;" vertex="1" parent="1">
          <mxGeometry x="390" y="1485" width="110" height="30" as="geometry" />
        </mxCell>
        <mxCell id="CJ2RXwOjifjP3YCDmima-172" value="" style="rounded=0;whiteSpace=wrap;html=1;" vertex="1" parent="1">
          <mxGeometry x="510" y="1620" width="40" height="40" as="geometry" />
        </mxCell>
        <mxCell id="CJ2RXwOjifjP3YCDmima-173" value="" style="rounded=0;whiteSpace=wrap;html=1;" vertex="1" parent="1">
          <mxGeometry x="550" y="1620" width="40" height="40" as="geometry" />
        </mxCell>
        <mxCell id="CJ2RXwOjifjP3YCDmima-174" value="" style="rounded=0;whiteSpace=wrap;html=1;" vertex="1" parent="1">
          <mxGeometry x="590" y="1620" width="40" height="40" as="geometry" />
        </mxCell>
        <mxCell id="CJ2RXwOjifjP3YCDmima-175" value="4" style="rounded=0;whiteSpace=wrap;html=1;" vertex="1" parent="1">
          <mxGeometry x="630" y="1620" width="40" height="40" as="geometry" />
        </mxCell>
        <mxCell id="CJ2RXwOjifjP3YCDmima-176" value="Line Buffer&amp;nbsp; B" style="text;html=1;whiteSpace=wrap;strokeColor=none;fillColor=none;align=center;verticalAlign=middle;rounded=0;" vertex="1" parent="1">
          <mxGeometry x="390" y="1625" width="110" height="30" as="geometry" />
        </mxCell>
        <mxCell id="CJ2RXwOjifjP3YCDmima-177" value="" style="endArrow=classic;html=1;rounded=0;entryX=0.5;entryY=1;entryDx=0;entryDy=0;exitX=0.5;exitY=0;exitDx=0;exitDy=0;" edge="1" parent="1" source="CJ2RXwOjifjP3YCDmima-173" target="CJ2RXwOjifjP3YCDmima-168">
          <mxGeometry width="50" height="50" relative="1" as="geometry">
            <mxPoint x="860" y="1600" as="sourcePoint" />
            <mxPoint x="910" y="1550" as="targetPoint" />
          </mxGeometry>
        </mxCell>
        <mxCell id="CJ2RXwOjifjP3YCDmima-178" value="" style="endArrow=classic;html=1;rounded=0;" edge="1" parent="1">
          <mxGeometry width="50" height="50" relative="1" as="geometry">
            <mxPoint x="570" y="1580" as="sourcePoint" />
            <mxPoint x="400" y="1580" as="targetPoint" />
          </mxGeometry>
        </mxCell>
        <mxCell id="CJ2RXwOjifjP3YCDmima-179" value="" style="endArrow=classic;html=1;rounded=0;entryX=0.5;entryY=1;entryDx=0;entryDy=0;exitX=0.5;exitY=0;exitDx=0;exitDy=0;" edge="1" parent="1" source="CJ2RXwOjifjP3YCDmima-174" target="CJ2RXwOjifjP3YCDmima-169">
          <mxGeometry width="50" height="50" relative="1" as="geometry">
            <mxPoint x="720" y="1560" as="sourcePoint" />
            <mxPoint x="770" y="1510" as="targetPoint" />
          </mxGeometry>
        </mxCell>
        <mxCell id="CJ2RXwOjifjP3YCDmima-180" value="" style="endArrow=classic;html=1;rounded=0;entryX=0.5;entryY=1;entryDx=0;entryDy=0;exitX=0.5;exitY=0;exitDx=0;exitDy=0;" edge="1" parent="1" source="CJ2RXwOjifjP3YCDmima-175" target="CJ2RXwOjifjP3YCDmima-170">
          <mxGeometry width="50" height="50" relative="1" as="geometry">
            <mxPoint x="720" y="1560" as="sourcePoint" />
            <mxPoint x="770" y="1510" as="targetPoint" />
          </mxGeometry>
        </mxCell>
        <mxCell id="CJ2RXwOjifjP3YCDmima-181" value="" style="endArrow=classic;html=1;rounded=0;entryX=0.5;entryY=1;entryDx=0;entryDy=0;exitX=0.5;exitY=0;exitDx=0;exitDy=0;" edge="1" parent="1" source="CJ2RXwOjifjP3YCDmima-172" target="CJ2RXwOjifjP3YCDmima-167">
          <mxGeometry width="50" height="50" relative="1" as="geometry">
            <mxPoint x="720" y="1560" as="sourcePoint" />
            <mxPoint x="770" y="1510" as="targetPoint" />
          </mxGeometry>
        </mxCell>
        <mxCell id="CJ2RXwOjifjP3YCDmima-182" value="" style="endArrow=classic;html=1;rounded=0;" edge="1" parent="1">
          <mxGeometry width="50" height="50" relative="1" as="geometry">
            <mxPoint x="530" y="1600" as="sourcePoint" />
            <mxPoint x="340" y="1600" as="targetPoint" />
          </mxGeometry>
        </mxCell>
        <mxCell id="CJ2RXwOjifjP3YCDmima-183" value="" style="endArrow=classic;html=1;rounded=0;" edge="1" parent="1">
          <mxGeometry width="50" height="50" relative="1" as="geometry">
            <mxPoint x="610" y="1560" as="sourcePoint" />
            <mxPoint x="340" y="1560" as="targetPoint" />
          </mxGeometry>
        </mxCell>
        <mxCell id="CJ2RXwOjifjP3YCDmima-184" value="" style="endArrow=classic;html=1;rounded=0;" edge="1" parent="1">
          <mxGeometry width="50" height="50" relative="1" as="geometry">
            <mxPoint x="650" y="1540" as="sourcePoint" />
            <mxPoint x="400" y="1540" as="targetPoint" />
          </mxGeometry>
        </mxCell>
        <mxCell id="CJ2RXwOjifjP3YCDmima-185" value="" style="rounded=0;whiteSpace=wrap;html=1;" vertex="1" parent="1">
          <mxGeometry x="510" y="1760" width="40" height="40" as="geometry" />
        </mxCell>
        <mxCell id="CJ2RXwOjifjP3YCDmima-186" value="" style="rounded=0;whiteSpace=wrap;html=1;" vertex="1" parent="1">
          <mxGeometry x="550" y="1760" width="40" height="40" as="geometry" />
        </mxCell>
        <mxCell id="CJ2RXwOjifjP3YCDmima-187" value="" style="rounded=0;whiteSpace=wrap;html=1;" vertex="1" parent="1">
          <mxGeometry x="590" y="1760" width="40" height="40" as="geometry" />
        </mxCell>
        <mxCell id="CJ2RXwOjifjP3YCDmima-188" value="" style="rounded=0;whiteSpace=wrap;html=1;" vertex="1" parent="1">
          <mxGeometry x="630" y="1760" width="40" height="40" as="geometry" />
        </mxCell>
        <mxCell id="CJ2RXwOjifjP3YCDmima-189" value="Line Buffer&amp;nbsp; C" style="text;html=1;whiteSpace=wrap;strokeColor=none;fillColor=none;align=center;verticalAlign=middle;rounded=0;" vertex="1" parent="1">
          <mxGeometry x="390" y="1765" width="110" height="30" as="geometry" />
        </mxCell>
        <mxCell id="CJ2RXwOjifjP3YCDmima-190" value="" style="endArrow=classic;html=1;rounded=0;entryX=0.5;entryY=1;entryDx=0;entryDy=0;exitX=0.5;exitY=0;exitDx=0;exitDy=0;" edge="1" parent="1" source="CJ2RXwOjifjP3YCDmima-186">
          <mxGeometry width="50" height="50" relative="1" as="geometry">
            <mxPoint x="860" y="1740" as="sourcePoint" />
            <mxPoint x="570" y="1660" as="targetPoint" />
          </mxGeometry>
        </mxCell>
        <mxCell id="CJ2RXwOjifjP3YCDmima-191" value="" style="endArrow=classic;html=1;rounded=0;" edge="1" parent="1">
          <mxGeometry width="50" height="50" relative="1" as="geometry">
            <mxPoint x="570" y="1720" as="sourcePoint" />
            <mxPoint x="400" y="1720" as="targetPoint" />
          </mxGeometry>
        </mxCell>
        <mxCell id="CJ2RXwOjifjP3YCDmima-192" value="" style="endArrow=classic;html=1;rounded=0;entryX=0.5;entryY=1;entryDx=0;entryDy=0;exitX=0.5;exitY=0;exitDx=0;exitDy=0;" edge="1" parent="1" source="CJ2RXwOjifjP3YCDmima-187">
          <mxGeometry width="50" height="50" relative="1" as="geometry">
            <mxPoint x="720" y="1700" as="sourcePoint" />
            <mxPoint x="610" y="1660" as="targetPoint" />
          </mxGeometry>
        </mxCell>
        <mxCell id="CJ2RXwOjifjP3YCDmima-193" value="" style="endArrow=classic;html=1;rounded=0;entryX=0.5;entryY=1;entryDx=0;entryDy=0;exitX=0.5;exitY=0;exitDx=0;exitDy=0;" edge="1" parent="1" source="CJ2RXwOjifjP3YCDmima-188">
          <mxGeometry width="50" height="50" relative="1" as="geometry">
            <mxPoint x="720" y="1700" as="sourcePoint" />
            <mxPoint x="650" y="1660" as="targetPoint" />
          </mxGeometry>
        </mxCell>
        <mxCell id="CJ2RXwOjifjP3YCDmima-194" value="" style="endArrow=classic;html=1;rounded=0;entryX=0.5;entryY=1;entryDx=0;entryDy=0;exitX=0.5;exitY=0;exitDx=0;exitDy=0;" edge="1" parent="1" source="CJ2RXwOjifjP3YCDmima-185">
          <mxGeometry width="50" height="50" relative="1" as="geometry">
            <mxPoint x="720" y="1700" as="sourcePoint" />
            <mxPoint x="530" y="1660" as="targetPoint" />
          </mxGeometry>
        </mxCell>
        <mxCell id="CJ2RXwOjifjP3YCDmima-195" value="" style="endArrow=classic;html=1;rounded=0;entryX=0.977;entryY=0.829;entryDx=0;entryDy=0;entryPerimeter=0;" edge="1" parent="1" target="CJ2RXwOjifjP3YCDmima-212">
          <mxGeometry width="50" height="50" relative="1" as="geometry">
            <mxPoint x="530" y="1740" as="sourcePoint" />
            <mxPoint x="340" y="1740" as="targetPoint" />
          </mxGeometry>
        </mxCell>
        <mxCell id="CJ2RXwOjifjP3YCDmima-196" value="" style="endArrow=classic;html=1;rounded=0;entryX=1;entryY=0;entryDx=0;entryDy=0;" edge="1" parent="1" target="CJ2RXwOjifjP3YCDmima-212">
          <mxGeometry width="50" height="50" relative="1" as="geometry">
            <mxPoint x="610" y="1700" as="sourcePoint" />
            <mxPoint x="340" y="1700" as="targetPoint" />
          </mxGeometry>
        </mxCell>
        <mxCell id="CJ2RXwOjifjP3YCDmima-197" value="" style="endArrow=classic;html=1;rounded=0;" edge="1" parent="1">
          <mxGeometry width="50" height="50" relative="1" as="geometry">
            <mxPoint x="650" y="1680" as="sourcePoint" />
            <mxPoint x="400" y="1680" as="targetPoint" />
          </mxGeometry>
        </mxCell>
        <mxCell id="CJ2RXwOjifjP3YCDmima-198" value="" style="endArrow=classic;html=1;rounded=0;entryX=0.5;entryY=1;entryDx=0;entryDy=0;exitX=0.5;exitY=0;exitDx=0;exitDy=0;" edge="1" parent="1">
          <mxGeometry width="50" height="50" relative="1" as="geometry">
            <mxPoint x="570" y="1900" as="sourcePoint" />
            <mxPoint x="570" y="1800" as="targetPoint" />
          </mxGeometry>
        </mxCell>
        <mxCell id="CJ2RXwOjifjP3YCDmima-199" value="" style="endArrow=classic;html=1;rounded=0;entryX=0.5;entryY=1;entryDx=0;entryDy=0;exitX=0.5;exitY=0;exitDx=0;exitDy=0;" edge="1" parent="1">
          <mxGeometry width="50" height="50" relative="1" as="geometry">
            <mxPoint x="610" y="1900" as="sourcePoint" />
            <mxPoint x="610" y="1800" as="targetPoint" />
          </mxGeometry>
        </mxCell>
        <mxCell id="CJ2RXwOjifjP3YCDmima-200" value="" style="endArrow=classic;html=1;rounded=0;entryX=0.5;entryY=1;entryDx=0;entryDy=0;exitX=0.5;exitY=0;exitDx=0;exitDy=0;" edge="1" parent="1">
          <mxGeometry width="50" height="50" relative="1" as="geometry">
            <mxPoint x="650" y="1900" as="sourcePoint" />
            <mxPoint x="650" y="1800" as="targetPoint" />
          </mxGeometry>
        </mxCell>
        <mxCell id="CJ2RXwOjifjP3YCDmima-201" value="" style="endArrow=classic;html=1;rounded=0;entryX=0.5;entryY=1;entryDx=0;entryDy=0;exitX=0.5;exitY=0;exitDx=0;exitDy=0;" edge="1" parent="1">
          <mxGeometry width="50" height="50" relative="1" as="geometry">
            <mxPoint x="530" y="1900" as="sourcePoint" />
            <mxPoint x="530" y="1800" as="targetPoint" />
          </mxGeometry>
        </mxCell>
        <mxCell id="CJ2RXwOjifjP3YCDmima-202" value="" style="endArrow=none;html=1;rounded=0;" edge="1" parent="1">
          <mxGeometry width="50" height="50" relative="1" as="geometry">
            <mxPoint x="530" y="1900" as="sourcePoint" />
            <mxPoint x="650" y="1900" as="targetPoint" />
          </mxGeometry>
        </mxCell>
        <mxCell id="CJ2RXwOjifjP3YCDmima-203" value="Text" style="text;html=1;whiteSpace=wrap;strokeColor=none;fillColor=none;align=center;verticalAlign=middle;rounded=0;" vertex="1" parent="1">
          <mxGeometry x="450" y="1570" width="60" height="30" as="geometry" />
        </mxCell>
        <mxCell id="CJ2RXwOjifjP3YCDmima-204" value="1" style="text;html=1;whiteSpace=wrap;strokeColor=none;fillColor=none;align=center;verticalAlign=middle;rounded=0;" vertex="1" parent="1">
          <mxGeometry x="500" y="1624" width="60" height="30" as="geometry" />
        </mxCell>
        <mxCell id="CJ2RXwOjifjP3YCDmima-205" value="2" style="text;html=1;whiteSpace=wrap;strokeColor=none;fillColor=none;align=center;verticalAlign=middle;rounded=0;" vertex="1" parent="1">
          <mxGeometry x="535" y="1625" width="60" height="30" as="geometry" />
        </mxCell>
        <mxCell id="CJ2RXwOjifjP3YCDmima-206" value="3" style="text;html=1;whiteSpace=wrap;strokeColor=none;fillColor=none;align=center;verticalAlign=middle;rounded=0;" vertex="1" parent="1">
          <mxGeometry x="580" y="1625" width="60" height="30" as="geometry" />
        </mxCell>
        <mxCell id="CJ2RXwOjifjP3YCDmima-207" value="" style="endArrow=classic;html=1;rounded=0;exitX=0.5;exitY=0;exitDx=0;exitDy=0;" edge="1" parent="1" source="CJ2RXwOjifjP3YCDmima-167">
          <mxGeometry width="50" height="50" relative="1" as="geometry">
            <mxPoint x="520" y="1470" as="sourcePoint" />
            <mxPoint x="330" y="1450" as="targetPoint" />
            <Array as="points">
              <mxPoint x="530" y="1450" />
            </Array>
          </mxGeometry>
        </mxCell>
        <mxCell id="CJ2RXwOjifjP3YCDmima-208" value="" style="endArrow=classic;html=1;rounded=0;exitX=0.5;exitY=0;exitDx=0;exitDy=0;" edge="1" parent="1" source="CJ2RXwOjifjP3YCDmima-168">
          <mxGeometry width="50" height="50" relative="1" as="geometry">
            <mxPoint x="570" y="1460" as="sourcePoint" />
            <mxPoint x="400" y="1430" as="targetPoint" />
            <Array as="points">
              <mxPoint x="570" y="1430" />
            </Array>
          </mxGeometry>
        </mxCell>
        <mxCell id="CJ2RXwOjifjP3YCDmima-209" value="" style="endArrow=classic;html=1;rounded=0;exitX=0.5;exitY=0;exitDx=0;exitDy=0;" edge="1" parent="1" source="CJ2RXwOjifjP3YCDmima-169">
          <mxGeometry width="50" height="50" relative="1" as="geometry">
            <mxPoint x="610" y="1440" as="sourcePoint" />
            <mxPoint x="330" y="1410" as="targetPoint" />
            <Array as="points">
              <mxPoint x="610" y="1410" />
            </Array>
          </mxGeometry>
        </mxCell>
        <mxCell id="CJ2RXwOjifjP3YCDmima-210" value="" style="endArrow=classic;html=1;rounded=0;exitX=0.5;exitY=0;exitDx=0;exitDy=0;" edge="1" parent="1" source="CJ2RXwOjifjP3YCDmima-170">
          <mxGeometry width="50" height="50" relative="1" as="geometry">
            <mxPoint x="650" y="1420" as="sourcePoint" />
            <mxPoint x="400" y="1390" as="targetPoint" />
            <Array as="points">
              <mxPoint x="650" y="1390" />
            </Array>
          </mxGeometry>
        </mxCell>
        <mxCell id="CJ2RXwOjifjP3YCDmima-211" value="-" style="ellipse;whiteSpace=wrap;html=1;aspect=fixed;" vertex="1" parent="1">
          <mxGeometry x="280" y="1400" width="55" height="55" as="geometry" />
        </mxCell>
        <mxCell id="CJ2RXwOjifjP3YCDmima-212" value="-" style="ellipse;whiteSpace=wrap;html=1;aspect=fixed;" vertex="1" parent="1">
          <mxGeometry x="280" y="1693" width="55" height="55" as="geometry" />
        </mxCell>
        <mxCell id="CJ2RXwOjifjP3YCDmima-213" value="-" style="ellipse;whiteSpace=wrap;html=1;aspect=fixed;" vertex="1" parent="1">
          <mxGeometry x="280" y="1550.5" width="55" height="55" as="geometry" />
        </mxCell>
        <mxCell id="CJ2RXwOjifjP3YCDmima-214" value="" style="endArrow=classic;html=1;rounded=0;exitX=0;exitY=0.5;exitDx=0;exitDy=0;" edge="1" parent="1" source="CJ2RXwOjifjP3YCDmima-213">
          <mxGeometry width="50" height="50" relative="1" as="geometry">
            <mxPoint x="265" y="1580" as="sourcePoint" />
            <mxPoint x="220" y="1578" as="targetPoint" />
          </mxGeometry>
        </mxCell>
        <mxCell id="CJ2RXwOjifjP3YCDmima-216" value="1 &amp;lt;&amp;lt;" style="ellipse;whiteSpace=wrap;html=1;aspect=fixed;" vertex="1" parent="1">
          <mxGeometry x="160" y="1550.5" width="55" height="55" as="geometry" />
        </mxCell>
        <mxCell id="CJ2RXwOjifjP3YCDmima-220" value="+" style="ellipse;whiteSpace=wrap;html=1;aspect=fixed;" vertex="1" parent="1">
          <mxGeometry x="50" y="1550.5" width="55" height="55" as="geometry" />
        </mxCell>
        <mxCell id="CJ2RXwOjifjP3YCDmima-221" value="" style="endArrow=classic;html=1;rounded=0;exitX=0;exitY=0.5;exitDx=0;exitDy=0;entryX=1;entryY=0.5;entryDx=0;entryDy=0;" edge="1" parent="1" source="CJ2RXwOjifjP3YCDmima-216" target="CJ2RXwOjifjP3YCDmima-220">
          <mxGeometry width="50" height="50" relative="1" as="geometry">
            <mxPoint x="190" y="1550" as="sourcePoint" />
            <mxPoint x="240" y="1500" as="targetPoint" />
          </mxGeometry>
        </mxCell>
        <mxCell id="CJ2RXwOjifjP3YCDmima-222" value="" style="endArrow=classic;html=1;rounded=0;exitX=0;exitY=0.5;exitDx=0;exitDy=0;entryX=0.5;entryY=0;entryDx=0;entryDy=0;" edge="1" parent="1" target="CJ2RXwOjifjP3YCDmima-220">
          <mxGeometry width="50" height="50" relative="1" as="geometry">
            <mxPoint x="280" y="1427.1399999999999" as="sourcePoint" />
            <mxPoint x="30" y="1460" as="targetPoint" />
            <Array as="points">
              <mxPoint x="78" y="1427" />
            </Array>
          </mxGeometry>
        </mxCell>
        <mxCell id="CJ2RXwOjifjP3YCDmima-223" value="+" style="ellipse;whiteSpace=wrap;html=1;aspect=fixed;" vertex="1" parent="1">
          <mxGeometry x="-60" y="1550.5" width="55" height="55" as="geometry" />
        </mxCell>
        <mxCell id="CJ2RXwOjifjP3YCDmima-224" value="" style="endArrow=classic;html=1;rounded=0;exitX=0;exitY=0.5;exitDx=0;exitDy=0;entryX=1;entryY=0.5;entryDx=0;entryDy=0;" edge="1" parent="1" target="CJ2RXwOjifjP3YCDmima-223">
          <mxGeometry width="50" height="50" relative="1" as="geometry">
            <mxPoint x="50" y="1578" as="sourcePoint" />
            <mxPoint x="130" y="1500" as="targetPoint" />
          </mxGeometry>
        </mxCell>
        <mxCell id="CJ2RXwOjifjP3YCDmima-225" value="" style="endArrow=classic;html=1;rounded=0;exitX=0;exitY=0.5;exitDx=0;exitDy=0;entryX=1;entryY=0.5;entryDx=0;entryDy=0;" edge="1" parent="1">
          <mxGeometry width="50" height="50" relative="1" as="geometry">
            <mxPoint x="-60" y="1577.64" as="sourcePoint" />
            <mxPoint x="-115" y="1577.64" as="targetPoint" />
          </mxGeometry>
        </mxCell>
        <mxCell id="CJ2RXwOjifjP3YCDmima-226" value="" style="endArrow=classic;html=1;rounded=0;exitX=0;exitY=0.5;exitDx=0;exitDy=0;entryX=0.5;entryY=1;entryDx=0;entryDy=0;" edge="1" parent="1" source="CJ2RXwOjifjP3YCDmima-212" target="CJ2RXwOjifjP3YCDmima-223">
          <mxGeometry width="50" height="50" relative="1" as="geometry">
            <mxPoint x="130" y="1650" as="sourcePoint" />
            <mxPoint x="-130" y="1720" as="targetPoint" />
            <Array as="points">
              <mxPoint x="-32" y="1720" />
            </Array>
          </mxGeometry>
        </mxCell>
        <mxCell id="CJ2RXwOjifjP3YCDmima-227" value="ABS" style="text;html=1;whiteSpace=wrap;strokeColor=none;fillColor=none;align=center;verticalAlign=middle;rounded=0;" vertex="1" parent="1">
          <mxGeometry x="-180" y="1563" width="60" height="30" as="geometry" />
        </mxCell>
        <mxCell id="CJ2RXwOjifjP3YCDmima-228" value="&lt;b&gt;DX CALCULATION&lt;/b&gt;" style="text;html=1;whiteSpace=wrap;strokeColor=none;fillColor=none;align=center;verticalAlign=middle;rounded=0;" vertex="1" parent="1">
          <mxGeometry x="-5" y="1350" width="255" height="30" as="geometry" />
        </mxCell>
        <mxCell id="CJ2RXwOjifjP3YCDmima-265" value="" style="shape=trapezoid;perimeter=trapezoidPerimeter;whiteSpace=wrap;html=1;fixedSize=1;rotation=-90;" vertex="1" parent="1">
          <mxGeometry x="-106.25" y="253.75" width="400" height="62.5" as="geometry" />
        </mxCell>
        <mxCell id="CJ2RXwOjifjP3YCDmima-270" value="" style="rounded=0;whiteSpace=wrap;html=1;" vertex="1" parent="1">
          <mxGeometry x="1470" y="480" width="40" height="40" as="geometry" />
        </mxCell>
        <mxCell id="CJ2RXwOjifjP3YCDmima-271" value="" style="rounded=0;whiteSpace=wrap;html=1;" vertex="1" parent="1">
          <mxGeometry x="1510" y="480" width="40" height="40" as="geometry" />
        </mxCell>
        <mxCell id="CJ2RXwOjifjP3YCDmima-272" value="" style="rounded=0;whiteSpace=wrap;html=1;" vertex="1" parent="1">
          <mxGeometry x="1550" y="480" width="40" height="40" as="geometry" />
        </mxCell>
        <mxCell id="CJ2RXwOjifjP3YCDmima-273" value="" style="rounded=0;whiteSpace=wrap;html=1;" vertex="1" parent="1">
          <mxGeometry x="1590" y="480" width="40" height="40" as="geometry" />
        </mxCell>
        <mxCell id="CJ2RXwOjifjP3YCDmima-274" value="" style="rounded=0;whiteSpace=wrap;html=1;" vertex="1" parent="1">
          <mxGeometry x="1470" y="560" width="40" height="40" as="geometry" />
        </mxCell>
        <mxCell id="CJ2RXwOjifjP3YCDmima-275" value="" style="rounded=0;whiteSpace=wrap;html=1;" vertex="1" parent="1">
          <mxGeometry x="1510" y="560" width="40" height="40" as="geometry" />
        </mxCell>
        <mxCell id="CJ2RXwOjifjP3YCDmima-276" value="" style="rounded=0;whiteSpace=wrap;html=1;" vertex="1" parent="1">
          <mxGeometry x="1550" y="560" width="40" height="40" as="geometry" />
        </mxCell>
        <mxCell id="CJ2RXwOjifjP3YCDmima-277" value="" style="rounded=0;whiteSpace=wrap;html=1;" vertex="1" parent="1">
          <mxGeometry x="1590" y="560" width="40" height="40" as="geometry" />
        </mxCell>
        <mxCell id="CJ2RXwOjifjP3YCDmima-282" value="" style="rounded=0;whiteSpace=wrap;html=1;" vertex="1" parent="1">
          <mxGeometry x="1660" y="480" width="40" height="40" as="geometry" />
        </mxCell>
        <mxCell id="CJ2RXwOjifjP3YCDmima-283" value="" style="rounded=0;whiteSpace=wrap;html=1;" vertex="1" parent="1">
          <mxGeometry x="1700" y="480" width="40" height="40" as="geometry" />
        </mxCell>
        <mxCell id="CJ2RXwOjifjP3YCDmima-284" value="" style="rounded=0;whiteSpace=wrap;html=1;" vertex="1" parent="1">
          <mxGeometry x="1740" y="480" width="40" height="40" as="geometry" />
        </mxCell>
        <mxCell id="CJ2RXwOjifjP3YCDmima-285" value="" style="rounded=0;whiteSpace=wrap;html=1;" vertex="1" parent="1">
          <mxGeometry x="1780" y="480" width="40" height="40" as="geometry" />
        </mxCell>
        <mxCell id="CJ2RXwOjifjP3YCDmima-286" value="" style="rounded=0;whiteSpace=wrap;html=1;" vertex="1" parent="1">
          <mxGeometry x="1660" y="560" width="40" height="40" as="geometry" />
        </mxCell>
        <mxCell id="CJ2RXwOjifjP3YCDmima-287" value="" style="rounded=0;whiteSpace=wrap;html=1;" vertex="1" parent="1">
          <mxGeometry x="1700" y="560" width="40" height="40" as="geometry" />
        </mxCell>
        <mxCell id="CJ2RXwOjifjP3YCDmima-288" value="" style="rounded=0;whiteSpace=wrap;html=1;" vertex="1" parent="1">
          <mxGeometry x="1740" y="560" width="40" height="40" as="geometry" />
        </mxCell>
        <mxCell id="CJ2RXwOjifjP3YCDmima-289" value="" style="rounded=0;whiteSpace=wrap;html=1;" vertex="1" parent="1">
          <mxGeometry x="1780" y="560" width="40" height="40" as="geometry" />
        </mxCell>
        <mxCell id="CJ2RXwOjifjP3YCDmima-294" value="" style="rounded=0;whiteSpace=wrap;html=1;" vertex="1" parent="1">
          <mxGeometry x="1870" y="480" width="40" height="40" as="geometry" />
        </mxCell>
        <mxCell id="CJ2RXwOjifjP3YCDmima-295" value="" style="rounded=0;whiteSpace=wrap;html=1;" vertex="1" parent="1">
          <mxGeometry x="1910" y="480" width="40" height="40" as="geometry" />
        </mxCell>
        <mxCell id="CJ2RXwOjifjP3YCDmima-296" value="" style="rounded=0;whiteSpace=wrap;html=1;" vertex="1" parent="1">
          <mxGeometry x="1950" y="480" width="40" height="40" as="geometry" />
        </mxCell>
        <mxCell id="CJ2RXwOjifjP3YCDmima-297" value="" style="rounded=0;whiteSpace=wrap;html=1;" vertex="1" parent="1">
          <mxGeometry x="1990" y="480" width="40" height="40" as="geometry" />
        </mxCell>
        <mxCell id="CJ2RXwOjifjP3YCDmima-298" value="" style="rounded=0;whiteSpace=wrap;html=1;" vertex="1" parent="1">
          <mxGeometry x="1870" y="560" width="40" height="40" as="geometry" />
        </mxCell>
        <mxCell id="CJ2RXwOjifjP3YCDmima-299" value="" style="rounded=0;whiteSpace=wrap;html=1;" vertex="1" parent="1">
          <mxGeometry x="1910" y="560" width="40" height="40" as="geometry" />
        </mxCell>
        <mxCell id="CJ2RXwOjifjP3YCDmima-300" value="" style="rounded=0;whiteSpace=wrap;html=1;" vertex="1" parent="1">
          <mxGeometry x="1950" y="560" width="40" height="40" as="geometry" />
        </mxCell>
        <mxCell id="CJ2RXwOjifjP3YCDmima-301" value="" style="rounded=0;whiteSpace=wrap;html=1;" vertex="1" parent="1">
          <mxGeometry x="1990" y="560" width="40" height="40" as="geometry" />
        </mxCell>
        <mxCell id="CJ2RXwOjifjP3YCDmima-306" value="" style="rounded=0;whiteSpace=wrap;html=1;" vertex="1" parent="1">
          <mxGeometry x="2060" y="475" width="40" height="40" as="geometry" />
        </mxCell>
        <mxCell id="CJ2RXwOjifjP3YCDmima-307" value="" style="rounded=0;whiteSpace=wrap;html=1;" vertex="1" parent="1">
          <mxGeometry x="2100" y="475" width="40" height="40" as="geometry" />
        </mxCell>
        <mxCell id="CJ2RXwOjifjP3YCDmima-308" value="" style="rounded=0;whiteSpace=wrap;html=1;" vertex="1" parent="1">
          <mxGeometry x="2140" y="475" width="40" height="40" as="geometry" />
        </mxCell>
        <mxCell id="CJ2RXwOjifjP3YCDmima-309" value="" style="rounded=0;whiteSpace=wrap;html=1;" vertex="1" parent="1">
          <mxGeometry x="2180" y="475" width="40" height="40" as="geometry" />
        </mxCell>
        <mxCell id="CJ2RXwOjifjP3YCDmima-310" value="" style="rounded=0;whiteSpace=wrap;html=1;" vertex="1" parent="1">
          <mxGeometry x="2060" y="555" width="40" height="40" as="geometry" />
        </mxCell>
        <mxCell id="CJ2RXwOjifjP3YCDmima-311" value="" style="rounded=0;whiteSpace=wrap;html=1;" vertex="1" parent="1">
          <mxGeometry x="2100" y="555" width="40" height="40" as="geometry" />
        </mxCell>
        <mxCell id="CJ2RXwOjifjP3YCDmima-312" value="" style="rounded=0;whiteSpace=wrap;html=1;" vertex="1" parent="1">
          <mxGeometry x="2140" y="555" width="40" height="40" as="geometry" />
        </mxCell>
        <mxCell id="CJ2RXwOjifjP3YCDmima-313" value="" style="rounded=0;whiteSpace=wrap;html=1;" vertex="1" parent="1">
          <mxGeometry x="2180" y="555" width="40" height="40" as="geometry" />
        </mxCell>
        <mxCell id="CJ2RXwOjifjP3YCDmima-318" value="" style="rounded=0;whiteSpace=wrap;html=1;" vertex="1" parent="1">
          <mxGeometry x="2250" y="475" width="40" height="40" as="geometry" />
        </mxCell>
        <mxCell id="CJ2RXwOjifjP3YCDmima-319" value="" style="rounded=0;whiteSpace=wrap;html=1;" vertex="1" parent="1">
          <mxGeometry x="2290" y="475" width="40" height="40" as="geometry" />
        </mxCell>
        <mxCell id="CJ2RXwOjifjP3YCDmima-320" value="" style="rounded=0;whiteSpace=wrap;html=1;" vertex="1" parent="1">
          <mxGeometry x="2330" y="475" width="40" height="40" as="geometry" />
        </mxCell>
        <mxCell id="CJ2RXwOjifjP3YCDmima-321" value="" style="rounded=0;whiteSpace=wrap;html=1;" vertex="1" parent="1">
          <mxGeometry x="2370" y="475" width="40" height="40" as="geometry" />
        </mxCell>
        <mxCell id="CJ2RXwOjifjP3YCDmima-322" value="" style="rounded=0;whiteSpace=wrap;html=1;" vertex="1" parent="1">
          <mxGeometry x="2250" y="555" width="40" height="40" as="geometry" />
        </mxCell>
        <mxCell id="CJ2RXwOjifjP3YCDmima-323" value="" style="rounded=0;whiteSpace=wrap;html=1;" vertex="1" parent="1">
          <mxGeometry x="2290" y="555" width="40" height="40" as="geometry" />
        </mxCell>
        <mxCell id="CJ2RXwOjifjP3YCDmima-324" value="" style="rounded=0;whiteSpace=wrap;html=1;" vertex="1" parent="1">
          <mxGeometry x="2330" y="555" width="40" height="40" as="geometry" />
        </mxCell>
        <mxCell id="CJ2RXwOjifjP3YCDmima-325" value="" style="rounded=0;whiteSpace=wrap;html=1;" vertex="1" parent="1">
          <mxGeometry x="2370" y="555" width="40" height="40" as="geometry" />
        </mxCell>
        <mxCell id="CJ2RXwOjifjP3YCDmima-330" value="" style="rounded=0;whiteSpace=wrap;html=1;" vertex="1" parent="1">
          <mxGeometry x="2460" y="475" width="40" height="40" as="geometry" />
        </mxCell>
        <mxCell id="CJ2RXwOjifjP3YCDmima-331" value="" style="rounded=0;whiteSpace=wrap;html=1;" vertex="1" parent="1">
          <mxGeometry x="2500" y="475" width="40" height="40" as="geometry" />
        </mxCell>
        <mxCell id="CJ2RXwOjifjP3YCDmima-332" value="" style="rounded=0;whiteSpace=wrap;html=1;" vertex="1" parent="1">
          <mxGeometry x="2540" y="475" width="40" height="40" as="geometry" />
        </mxCell>
        <mxCell id="CJ2RXwOjifjP3YCDmima-333" value="" style="rounded=0;whiteSpace=wrap;html=1;" vertex="1" parent="1">
          <mxGeometry x="2580" y="475" width="40" height="40" as="geometry" />
        </mxCell>
        <mxCell id="CJ2RXwOjifjP3YCDmima-334" value="" style="rounded=0;whiteSpace=wrap;html=1;" vertex="1" parent="1">
          <mxGeometry x="2460" y="555" width="40" height="40" as="geometry" />
        </mxCell>
        <mxCell id="CJ2RXwOjifjP3YCDmima-335" value="" style="rounded=0;whiteSpace=wrap;html=1;" vertex="1" parent="1">
          <mxGeometry x="2500" y="555" width="40" height="40" as="geometry" />
        </mxCell>
        <mxCell id="CJ2RXwOjifjP3YCDmima-336" value="" style="rounded=0;whiteSpace=wrap;html=1;" vertex="1" parent="1">
          <mxGeometry x="2540" y="555" width="40" height="40" as="geometry" />
        </mxCell>
        <mxCell id="CJ2RXwOjifjP3YCDmima-337" value="" style="rounded=0;whiteSpace=wrap;html=1;" vertex="1" parent="1">
          <mxGeometry x="2580" y="555" width="40" height="40" as="geometry" />
        </mxCell>
        <mxCell id="CJ2RXwOjifjP3YCDmima-338" value="" style="rounded=0;whiteSpace=wrap;html=1;" vertex="1" parent="1">
          <mxGeometry x="1474" y="638" width="40" height="40" as="geometry" />
        </mxCell>
        <mxCell id="CJ2RXwOjifjP3YCDmima-339" value="" style="rounded=0;whiteSpace=wrap;html=1;" vertex="1" parent="1">
          <mxGeometry x="1514" y="638" width="40" height="40" as="geometry" />
        </mxCell>
        <mxCell id="CJ2RXwOjifjP3YCDmima-340" value="" style="rounded=0;whiteSpace=wrap;html=1;" vertex="1" parent="1">
          <mxGeometry x="1554" y="638" width="40" height="40" as="geometry" />
        </mxCell>
        <mxCell id="CJ2RXwOjifjP3YCDmima-341" value="" style="rounded=0;whiteSpace=wrap;html=1;" vertex="1" parent="1">
          <mxGeometry x="1594" y="638" width="40" height="40" as="geometry" />
        </mxCell>
        <mxCell id="CJ2RXwOjifjP3YCDmima-342" value="" style="rounded=0;whiteSpace=wrap;html=1;" vertex="1" parent="1">
          <mxGeometry x="1664" y="638" width="40" height="40" as="geometry" />
        </mxCell>
        <mxCell id="CJ2RXwOjifjP3YCDmima-343" value="" style="rounded=0;whiteSpace=wrap;html=1;" vertex="1" parent="1">
          <mxGeometry x="1704" y="638" width="40" height="40" as="geometry" />
        </mxCell>
        <mxCell id="CJ2RXwOjifjP3YCDmima-344" value="" style="rounded=0;whiteSpace=wrap;html=1;" vertex="1" parent="1">
          <mxGeometry x="1744" y="638" width="40" height="40" as="geometry" />
        </mxCell>
        <mxCell id="CJ2RXwOjifjP3YCDmima-345" value="" style="rounded=0;whiteSpace=wrap;html=1;" vertex="1" parent="1">
          <mxGeometry x="1784" y="638" width="40" height="40" as="geometry" />
        </mxCell>
        <mxCell id="CJ2RXwOjifjP3YCDmima-346" value="" style="rounded=0;whiteSpace=wrap;html=1;" vertex="1" parent="1">
          <mxGeometry x="1874" y="638" width="40" height="40" as="geometry" />
        </mxCell>
        <mxCell id="CJ2RXwOjifjP3YCDmima-347" value="" style="rounded=0;whiteSpace=wrap;html=1;" vertex="1" parent="1">
          <mxGeometry x="1914" y="638" width="40" height="40" as="geometry" />
        </mxCell>
        <mxCell id="CJ2RXwOjifjP3YCDmima-348" value="" style="rounded=0;whiteSpace=wrap;html=1;" vertex="1" parent="1">
          <mxGeometry x="1954" y="638" width="40" height="40" as="geometry" />
        </mxCell>
        <mxCell id="CJ2RXwOjifjP3YCDmima-349" value="" style="rounded=0;whiteSpace=wrap;html=1;" vertex="1" parent="1">
          <mxGeometry x="1994" y="638" width="40" height="40" as="geometry" />
        </mxCell>
        <mxCell id="CJ2RXwOjifjP3YCDmima-350" value="" style="rounded=0;whiteSpace=wrap;html=1;" vertex="1" parent="1">
          <mxGeometry x="2064" y="633" width="40" height="40" as="geometry" />
        </mxCell>
        <mxCell id="CJ2RXwOjifjP3YCDmima-351" value="" style="rounded=0;whiteSpace=wrap;html=1;" vertex="1" parent="1">
          <mxGeometry x="2104" y="633" width="40" height="40" as="geometry" />
        </mxCell>
        <mxCell id="CJ2RXwOjifjP3YCDmima-352" value="" style="rounded=0;whiteSpace=wrap;html=1;" vertex="1" parent="1">
          <mxGeometry x="2144" y="633" width="40" height="40" as="geometry" />
        </mxCell>
        <mxCell id="CJ2RXwOjifjP3YCDmima-353" value="" style="rounded=0;whiteSpace=wrap;html=1;" vertex="1" parent="1">
          <mxGeometry x="2184" y="633" width="40" height="40" as="geometry" />
        </mxCell>
        <mxCell id="CJ2RXwOjifjP3YCDmima-354" value="" style="rounded=0;whiteSpace=wrap;html=1;" vertex="1" parent="1">
          <mxGeometry x="2254" y="633" width="40" height="40" as="geometry" />
        </mxCell>
        <mxCell id="CJ2RXwOjifjP3YCDmima-355" value="" style="rounded=0;whiteSpace=wrap;html=1;" vertex="1" parent="1">
          <mxGeometry x="2294" y="633" width="40" height="40" as="geometry" />
        </mxCell>
        <mxCell id="CJ2RXwOjifjP3YCDmima-356" value="" style="rounded=0;whiteSpace=wrap;html=1;" vertex="1" parent="1">
          <mxGeometry x="2334" y="633" width="40" height="40" as="geometry" />
        </mxCell>
        <mxCell id="CJ2RXwOjifjP3YCDmima-357" value="" style="rounded=0;whiteSpace=wrap;html=1;" vertex="1" parent="1">
          <mxGeometry x="2374" y="633" width="40" height="40" as="geometry" />
        </mxCell>
        <mxCell id="CJ2RXwOjifjP3YCDmima-358" value="" style="rounded=0;whiteSpace=wrap;html=1;" vertex="1" parent="1">
          <mxGeometry x="2464" y="633" width="40" height="40" as="geometry" />
        </mxCell>
        <mxCell id="CJ2RXwOjifjP3YCDmima-359" value="" style="rounded=0;whiteSpace=wrap;html=1;" vertex="1" parent="1">
          <mxGeometry x="2504" y="633" width="40" height="40" as="geometry" />
        </mxCell>
        <mxCell id="CJ2RXwOjifjP3YCDmima-360" value="" style="rounded=0;whiteSpace=wrap;html=1;" vertex="1" parent="1">
          <mxGeometry x="2544" y="633" width="40" height="40" as="geometry" />
        </mxCell>
        <mxCell id="CJ2RXwOjifjP3YCDmima-361" value="" style="rounded=0;whiteSpace=wrap;html=1;" vertex="1" parent="1">
          <mxGeometry x="2584" y="633" width="40" height="40" as="geometry" />
        </mxCell>
        <mxCell id="CJ2RXwOjifjP3YCDmima-362" value="" style="rounded=0;whiteSpace=wrap;html=1;" vertex="1" parent="1">
          <mxGeometry x="400" y="200" width="40" height="40" as="geometry" />
        </mxCell>
        <mxCell id="CJ2RXwOjifjP3YCDmima-363" value="" style="rounded=0;whiteSpace=wrap;html=1;" vertex="1" parent="1">
          <mxGeometry x="440" y="200" width="40" height="40" as="geometry" />
        </mxCell>
        <mxCell id="CJ2RXwOjifjP3YCDmima-364" value="" style="rounded=0;whiteSpace=wrap;html=1;" vertex="1" parent="1">
          <mxGeometry x="400" y="340" width="40" height="40" as="geometry" />
        </mxCell>
        <mxCell id="CJ2RXwOjifjP3YCDmima-365" value="" style="rounded=0;whiteSpace=wrap;html=1;" vertex="1" parent="1">
          <mxGeometry x="440" y="340" width="40" height="40" as="geometry" />
        </mxCell>
        <mxCell id="CJ2RXwOjifjP3YCDmima-366" value="" style="rounded=0;whiteSpace=wrap;html=1;" vertex="1" parent="1">
          <mxGeometry x="400" y="480" width="40" height="40" as="geometry" />
        </mxCell>
        <mxCell id="CJ2RXwOjifjP3YCDmima-367" value="" style="rounded=0;whiteSpace=wrap;html=1;" vertex="1" parent="1">
          <mxGeometry x="440" y="480" width="40" height="40" as="geometry" />
        </mxCell>
        <mxCell id="CJ2RXwOjifjP3YCDmima-373" value="" style="rounded=0;whiteSpace=wrap;html=1;fillColor=#f8cecc;strokeColor=#b85450;" vertex="1" parent="1">
          <mxGeometry x="550" y="870" width="40" height="40" as="geometry" />
        </mxCell>
        <mxCell id="CJ2RXwOjifjP3YCDmima-374" value="" style="rounded=0;whiteSpace=wrap;html=1;fillColor=#f8cecc;strokeColor=#b85450;" vertex="1" parent="1">
          <mxGeometry x="590" y="870" width="40" height="40" as="geometry" />
        </mxCell>
        <mxCell id="CJ2RXwOjifjP3YCDmima-375" value="" style="rounded=0;whiteSpace=wrap;html=1;fillColor=#f8cecc;strokeColor=#b85450;" vertex="1" parent="1">
          <mxGeometry x="630" y="870" width="40" height="40" as="geometry" />
        </mxCell>
        <mxCell id="CJ2RXwOjifjP3YCDmima-376" value="" style="rounded=0;whiteSpace=wrap;html=1;fillColor=#f8cecc;strokeColor=#b85450;" vertex="1" parent="1">
          <mxGeometry x="670" y="870" width="40" height="40" as="geometry" />
        </mxCell>
        <mxCell id="CJ2RXwOjifjP3YCDmima-377" value="" style="rounded=0;whiteSpace=wrap;html=1;" vertex="1" parent="1">
          <mxGeometry x="550" y="830" width="40" height="40" as="geometry" />
        </mxCell>
        <mxCell id="CJ2RXwOjifjP3YCDmima-378" value="" style="rounded=0;whiteSpace=wrap;html=1;" vertex="1" parent="1">
          <mxGeometry x="590" y="830" width="40" height="40" as="geometry" />
        </mxCell>
        <mxCell id="CJ2RXwOjifjP3YCDmima-379" value="" style="rounded=0;whiteSpace=wrap;html=1;" vertex="1" parent="1">
          <mxGeometry x="630" y="830" width="40" height="40" as="geometry" />
        </mxCell>
        <mxCell id="CJ2RXwOjifjP3YCDmima-380" value="" style="rounded=0;whiteSpace=wrap;html=1;" vertex="1" parent="1">
          <mxGeometry x="670" y="830" width="40" height="40" as="geometry" />
        </mxCell>
        <mxCell id="CJ2RXwOjifjP3YCDmima-381" value="" style="rounded=0;whiteSpace=wrap;html=1;" vertex="1" parent="1">
          <mxGeometry x="550" y="910" width="40" height="40" as="geometry" />
        </mxCell>
        <mxCell id="CJ2RXwOjifjP3YCDmima-382" value="" style="rounded=0;whiteSpace=wrap;html=1;" vertex="1" parent="1">
          <mxGeometry x="590" y="910" width="40" height="40" as="geometry" />
        </mxCell>
        <mxCell id="CJ2RXwOjifjP3YCDmima-383" value="" style="rounded=0;whiteSpace=wrap;html=1;" vertex="1" parent="1">
          <mxGeometry x="630" y="910" width="40" height="40" as="geometry" />
        </mxCell>
        <mxCell id="CJ2RXwOjifjP3YCDmima-384" value="" style="rounded=0;whiteSpace=wrap;html=1;" vertex="1" parent="1">
          <mxGeometry x="670" y="910" width="40" height="40" as="geometry" />
        </mxCell>
        <mxCell id="CJ2RXwOjifjP3YCDmima-389" value="" style="rounded=0;whiteSpace=wrap;html=1;" vertex="1" parent="1">
          <mxGeometry x="710" y="870" width="40" height="40" as="geometry" />
        </mxCell>
        <mxCell id="CJ2RXwOjifjP3YCDmima-390" value="" style="rounded=0;whiteSpace=wrap;html=1;" vertex="1" parent="1">
          <mxGeometry x="710" y="830" width="40" height="40" as="geometry" />
        </mxCell>
        <mxCell id="CJ2RXwOjifjP3YCDmima-391" value="" style="rounded=0;whiteSpace=wrap;html=1;" vertex="1" parent="1">
          <mxGeometry x="710" y="910" width="40" height="40" as="geometry" />
        </mxCell>
        <mxCell id="CJ2RXwOjifjP3YCDmima-392" value="" style="rounded=0;whiteSpace=wrap;html=1;" vertex="1" parent="1">
          <mxGeometry x="510" y="870" width="40" height="40" as="geometry" />
        </mxCell>
        <mxCell id="CJ2RXwOjifjP3YCDmima-393" value="" style="rounded=0;whiteSpace=wrap;html=1;" vertex="1" parent="1">
          <mxGeometry x="510" y="830" width="40" height="40" as="geometry" />
        </mxCell>
        <mxCell id="CJ2RXwOjifjP3YCDmima-394" value="" style="rounded=0;whiteSpace=wrap;html=1;" vertex="1" parent="1">
          <mxGeometry x="510" y="910" width="40" height="40" as="geometry" />
        </mxCell>
        <mxCell id="CJ2RXwOjifjP3YCDmima-395" value="&lt;div style=&quot;text-align: left;&quot;&gt;module pixel_window_mux #(&lt;/div&gt;&lt;div style=&quot;text-align: left;&quot;&gt;&amp;nbsp; &amp;nbsp; parameter SIZE_ROW = 640&lt;/div&gt;&lt;div style=&quot;text-align: left;&quot;&gt;)(&lt;/div&gt;&lt;div style=&quot;text-align: left;&quot;&gt;&amp;nbsp; &amp;nbsp; input&amp;nbsp; wire [7:0] line0 [0:SIZE_ROW-1],&lt;/div&gt;&lt;div style=&quot;text-align: left;&quot;&gt;&amp;nbsp; &amp;nbsp; input&amp;nbsp; wire [7:0] line1 [0:SIZE_ROW-1],&lt;/div&gt;&lt;div style=&quot;text-align: left;&quot;&gt;&amp;nbsp; &amp;nbsp; input&amp;nbsp; wire [7:0] line2 [0:SIZE_ROW-1],&lt;/div&gt;&lt;div style=&quot;text-align: left;&quot;&gt;&amp;nbsp; &amp;nbsp; input&amp;nbsp; wire [$clog2(SIZE_ROW)-1:0] sel,&lt;/div&gt;&lt;div style=&quot;text-align: left;&quot;&gt;&amp;nbsp; &amp;nbsp; output wire [7:0] win [0:17]&lt;/div&gt;&lt;div style=&quot;text-align: left;&quot;&gt;);&lt;/div&gt;&lt;div style=&quot;text-align: left;&quot;&gt;&amp;nbsp; &amp;nbsp; genvar i;&lt;/div&gt;&lt;div style=&quot;text-align: left;&quot;&gt;&amp;nbsp; &amp;nbsp; generate&lt;/div&gt;&lt;div style=&quot;text-align: left;&quot;&gt;&amp;nbsp; &amp;nbsp; &amp;nbsp; &amp;nbsp; for (i = 0; i &amp;lt; 6; i = i + 1) begin&lt;/div&gt;&lt;div style=&quot;text-align: left;&quot;&gt;&amp;nbsp; &amp;nbsp; &amp;nbsp; &amp;nbsp; &amp;nbsp; &amp;nbsp; assign win[i]&amp;nbsp; &amp;nbsp; &amp;nbsp; = line0[sel - 1 + i];&lt;/div&gt;&lt;div style=&quot;text-align: left;&quot;&gt;&amp;nbsp; &amp;nbsp; &amp;nbsp; &amp;nbsp; &amp;nbsp; &amp;nbsp; assign win[i + 6]&amp;nbsp; = line1[sel - 1 + i];&lt;/div&gt;&lt;div style=&quot;text-align: left;&quot;&gt;&amp;nbsp; &amp;nbsp; &amp;nbsp; &amp;nbsp; &amp;nbsp; &amp;nbsp; assign win[i + 12] = line2[sel - 1 + i];&lt;/div&gt;&lt;div style=&quot;text-align: left;&quot;&gt;&amp;nbsp; &amp;nbsp; &amp;nbsp; &amp;nbsp; end&lt;/div&gt;&lt;div style=&quot;text-align: left;&quot;&gt;&amp;nbsp; &amp;nbsp; endgenerate&lt;/div&gt;&lt;div style=&quot;text-align: left;&quot;&gt;endmodule&lt;/div&gt;&lt;div&gt;&lt;br&gt;&lt;/div&gt;" style="text;html=1;whiteSpace=wrap;strokeColor=none;fillColor=none;align=center;verticalAlign=middle;rounded=0;" vertex="1" parent="1">
          <mxGeometry x="-620" y="790" width="570" height="330" as="geometry" />
        </mxCell>
      </root>
    </mxGraphModel>
  </diagram>
</mxfile>
